<svg width="1635" height="1807" viewBox="0 0 1635 1807" fill="none" xmlns="http://www.w3.org/2000/svg">
<g filter="url(#filter0_f_743_1382)">
<path fill-rule="evenodd" clip-rule="evenodd" d="M835.936 602.281C909.516 613.676 949.982 706.029 990.591 780.97C1021.06 837.195 1039.79 900.85 1033.93 967.663C1028.65 1027.89 996.467 1075.8 960.992 1118.62C925.519 1161.44 886.065 1204.36 835.936 1206.66C784.363 1209.02 739.945 1171.43 701.002 1130.55C658.194 1085.61 619.126 1034.88 608.284 967.663C594.904 884.7 593.673 793.565 635.758 726.017C682.601 650.834 758.638 590.309 835.936 602.281Z" fill="url(#paint0_linear_743_1382)"/>
</g>
<defs>
<filter id="filter0_f_743_1382" x="0" y="0.763672" width="1635" height="1806" filterUnits="userSpaceOnUse" color-interpolation-filters="sRGB">
<feFlood flood-opacity="0" result="BackgroundImageFix"/>
<feBlend mode="normal" in="SourceGraphic" in2="BackgroundImageFix" result="shape"/>
<feGaussianBlur stdDeviation="300" result="effect1_foregroundBlur_743_1382"/>
</filter>
<linearGradient id="paint0_linear_743_1382" x1="600" y1="600.764" x2="1035" y2="600.764" gradientUnits="userSpaceOnUse">
<stop stop-color="#F73232"/>
<stop offset="1" stop-color="#FF7D16"/>
</linearGradient>
</defs>
</svg>
