<svg width="333" height="98" viewBox="0 0 333 98" fill="none" xmlns="http://www.w3.org/2000/svg">
<path d="M330.98 29.3368C331.647 34.9754 328.056 41.0974 320.364 47.3803C312.715 53.6276 301.245 59.8328 286.761 65.6322C257.808 77.2254 217.028 87.1114 171.292 92.517C125.556 97.9226 83.5955 97.816 52.7369 93.2921C37.3002 91.0291 24.6998 87.6688 15.8054 83.3768C6.86026 79.0604 1.94144 73.9441 1.27499 68.3055C0.608553 62.6669 4.19911 56.545 11.8915 50.2621C19.5402 44.0148 31.01 37.8096 45.4938 32.0102C74.4475 20.417 115.227 10.5309 160.963 5.12532C206.699 -0.280292 248.66 -0.173629 279.518 4.35022C294.955 6.61324 307.555 9.97352 316.45 14.2655C325.395 18.582 330.314 23.6982 330.98 29.3368Z" stroke="url(#paint0_linear_28_92)" stroke-width="2"/>
<defs>
<linearGradient id="paint0_linear_28_92" x1="124.939" y1="-27.3679" x2="140.415" y2="70.131" gradientUnits="userSpaceOnUse">
<stop stop-color="#FF0000"/>
<stop offset="0.59" stop-color="#FFC700"/>
<stop offset="0.99" stop-color="#FBB040" stop-opacity="0"/>
</linearGradient>
</defs>
</svg>
