<svg width="3164" height="1017" viewBox="0 0 3164 1017" fill="none" xmlns="http://www.w3.org/2000/svg">
<path d="M124.688 729.545C136.605 729.545 146.704 725.404 154.986 717.123C163.267 708.842 167.407 698.742 167.407 686.826V472.624L254.359 595.934C263.651 608.052 275.265 614.112 289.201 614.112C302.936 614.112 314.651 608.052 324.346 595.934L488.859 362.646C493.909 354.769 496.433 346.588 496.433 338.105C496.433 335.681 495.878 331.036 494.767 324.168C493.656 317.301 488.152 310.333 478.255 303.263C470.378 297.81 462.197 295.083 453.714 295.083C451.29 295.083 446.695 295.739 439.929 297.052C433.162 298.365 426.144 303.768 418.872 313.261L289.2 497.164L159.831 313.261C150.136 301.344 138.522 295.386 124.989 295.386C110.447 295.386 98.8327 301.243 90.1475 312.958C84.694 320.432 81.9673 328.713 81.9673 337.802V686.826C81.9673 698.743 86.1079 708.842 94.3892 717.123C102.67 725.405 112.771 729.545 124.688 729.545ZM940.888 729.545C949.371 729.545 957.551 726.919 965.428 721.667C977.547 712.78 983.607 701.166 983.607 686.826C983.607 678.342 981.082 670.162 976.032 662.285L811.519 428.693C801.824 416.776 790.109 410.818 776.375 410.818C762.438 410.818 750.824 416.776 741.533 428.693L654.581 552.002V337.801C654.581 326.086 650.44 316.037 642.159 307.655C633.878 299.273 623.779 295.082 611.862 295.082C599.945 295.082 589.846 299.273 581.565 307.655C573.283 316.037 569.143 326.086 569.143 337.801V686.825C569.143 696.116 571.869 704.498 577.323 711.972C586.008 723.485 597.723 729.241 612.468 729.241C625.799 729.241 637.311 723.283 647.007 711.366L776.375 527.463L906.048 711.366C915.743 723.485 927.355 729.545 940.888 729.545Z" fill="url(#paint0_linear_754_1393)"/>
<path d="M1172.13 81.9672H1147.54V934.426H1172.13V81.9672Z" fill="black"/>
<path d="M1581.55 723.439C1568.21 723.439 1556.76 717.564 1547.2 705.815L1379.32 469.233V554.366C1379.32 565.916 1375.24 575.824 1367.07 584.088C1358.91 592.353 1348.95 596.485 1337.2 596.485C1325.65 596.485 1315.74 592.352 1307.48 584.088C1299.21 575.824 1295.08 565.916 1295.08 554.366V336.902C1295.28 335.508 1295.43 334.213 1295.53 333.019C1295.63 331.824 1295.78 330.828 1295.98 330.031L1296.28 328.239C1296.68 326.248 1297.27 324.356 1298.07 322.564C1298.27 321.767 1298.42 321.219 1298.52 320.921C1298.62 320.622 1298.77 320.273 1298.97 319.875L1299.56 318.68L1300.16 317.485L1300.76 316.291C1300.76 316.291 1300.96 315.942 1301.35 315.245L1302.25 313.901C1303.45 312.109 1304.74 310.515 1306.13 309.121L1306.43 308.823C1306.43 308.823 1306.63 308.574 1307.03 308.076C1307.43 307.578 1307.68 307.279 1307.78 307.18C1307.88 307.08 1308.47 306.582 1309.57 305.686C1310.66 304.79 1311.71 303.944 1312.71 303.147L1313.3 302.848C1314.3 302.052 1315.2 301.454 1315.99 301.056C1316.79 300.658 1317.54 300.26 1318.23 299.861C1318.93 299.463 1319.73 299.065 1320.62 298.666C1321.52 298.268 1322.41 297.92 1323.31 297.621L1325.55 296.874C1325.55 296.874 1326.3 296.675 1327.79 296.277C1329.28 295.878 1330.23 295.729 1330.63 295.829L1333.62 295.53C1333.62 295.53 1334.71 295.381 1336.9 295.082L1346.46 296.277C1349.25 296.874 1351.84 297.671 1354.23 298.666L1354.82 298.965L1356.02 299.563L1357.21 300.16L1358.41 300.757C1358.41 300.757 1358.76 300.957 1359.45 301.355L1360.8 302.251L1364.08 304.939C1364.68 305.338 1365.08 305.636 1365.28 305.836L1365.88 306.433C1365.88 306.433 1366.13 306.632 1366.62 307.03C1367.12 307.429 1367.42 307.678 1367.52 307.777C1367.62 307.877 1368.12 308.474 1369.01 309.569C1369.91 310.665 1370.76 311.71 1371.55 312.706L1539.43 549.288V337.201C1539.43 325.651 1543.56 315.744 1551.83 307.479C1560.09 299.215 1570 295.083 1581.55 295.083C1593.3 295.083 1603.26 299.215 1611.42 307.479C1619.58 315.744 1623.67 325.651 1623.67 337.201V681.319C1623.67 690.48 1621.08 698.744 1615.9 706.112C1607.34 717.663 1595.89 723.439 1581.55 723.439ZM1337.2 723.439C1325.65 723.439 1315.75 719.307 1307.48 711.042C1299.22 702.778 1295.08 692.871 1295.09 681.32C1295.09 669.77 1299.22 659.863 1307.48 651.598C1315.75 643.334 1325.65 639.202 1337.2 639.202C1348.95 639.202 1358.91 643.334 1367.07 651.598C1375.24 659.863 1379.32 669.77 1379.32 681.32C1379.32 692.871 1375.24 702.778 1367.07 711.042C1358.91 719.307 1348.95 723.439 1337.2 723.439ZM1903.56 723.439C1942.8 723.439 1978.64 713.78 2011.1 694.464C2043.56 675.147 2069.45 649.308 2088.77 616.947C2108.09 584.586 2117.74 548.79 2117.74 509.561C2117.74 471.524 2107.99 435.48 2088.47 401.426C2069.55 369.364 2044.16 343.775 2012.3 324.657C2005.13 320.873 1997.86 318.981 1990.49 318.981C1987.11 318.981 1981.83 319.878 1974.66 321.67C1967.49 323.462 1960.72 329.436 1954.35 339.593C1950.56 346.364 1948.67 353.334 1948.67 360.503C1948.67 364.087 1949.62 369.564 1951.51 376.932C1953.4 384.3 1959.33 391.071 1969.28 397.244C1989.4 409.193 2005.13 425.124 2016.48 445.039C2027.83 464.953 2033.51 486.46 2033.51 509.561C2033.51 533.259 2027.68 554.916 2016.03 574.532C2004.38 594.147 1988.7 609.83 1968.98 621.579C1949.27 633.329 1927.46 639.204 1903.56 639.203C1879.87 639.203 1858.16 633.329 1838.45 621.579C1818.73 609.83 1803 594.147 1791.25 574.532C1779.5 554.916 1773.62 533.259 1773.62 509.562C1773.62 502.393 1774.22 495.323 1775.42 488.353L1776.01 481.782C1776.01 472.621 1773.03 463.959 1767.05 455.794C1759.48 445.239 1748.33 439.962 1733.6 439.962C1724.44 439.962 1715.77 442.899 1707.61 448.774C1699.44 454.649 1694.36 463.361 1692.37 474.911C1690.38 486.462 1689.39 498.012 1689.39 509.562C1689.39 548.793 1699.04 584.589 1718.36 616.949C1737.68 649.31 1763.52 675.149 1795.88 694.466C1828.24 713.783 1864.14 723.439 1903.56 723.439ZM2378.52 723.439C2407.39 723.439 2433.98 717.365 2458.28 705.217C2482.57 693.07 2503.38 675.545 2520.71 652.642C2550.18 611.221 2564.92 563.426 2564.92 509.26C2564.92 455.292 2550.18 407.498 2520.71 365.877C2503.38 342.976 2482.57 325.451 2458.27 313.304C2433.98 301.156 2407.39 295.082 2378.52 295.082H2225.58C2213.83 295.082 2203.87 299.214 2195.71 307.479C2187.54 315.743 2183.46 325.651 2183.46 337.201V441.752C2183.46 453.501 2187.54 463.458 2195.71 471.623C2203.87 479.788 2213.83 483.87 2225.58 483.87C2237.13 483.87 2247.04 479.788 2255.3 471.623C2263.56 463.458 2267.7 453.501 2267.7 441.752V379.321H2378.52C2415.16 379.321 2442.34 394.954 2460.07 426.219C2474.01 450.913 2480.98 478.593 2480.98 509.261C2480.98 544.908 2471.72 575.974 2453.2 602.46C2434.68 626.954 2409.78 639.202 2378.52 639.202H2225.58C2213.83 639.202 2203.87 643.334 2195.7 651.598C2187.54 659.863 2183.46 669.77 2183.46 681.32C2183.46 692.871 2187.54 702.778 2195.7 711.042C2203.87 719.307 2213.83 723.439 2225.58 723.439H2378.52ZM2892.31 723.439H2672.75C2661.01 723.439 2651.05 719.307 2642.88 711.042C2634.72 702.778 2630.64 692.871 2630.64 681.32C2630.64 669.77 2634.72 659.863 2642.88 651.598C2651.05 643.334 2661.01 639.202 2672.75 639.202H2892.31C2903.86 639.202 2913.77 643.334 2922.03 651.598C2930.29 659.863 2934.43 669.77 2934.43 681.32C2934.43 692.871 2930.29 702.778 2922.03 711.042C2913.77 719.307 2903.86 723.439 2892.31 723.439ZM2892.31 379.321H2672.75C2661.01 379.321 2651.05 375.238 2642.88 367.074C2634.72 358.909 2630.64 348.952 2630.64 337.202C2630.64 325.652 2634.72 315.745 2642.88 307.48C2651.05 299.216 2661.01 295.084 2672.75 295.084H2892.31C2903.86 295.084 2913.77 299.216 2922.03 307.48C2930.29 315.745 2934.43 325.652 2934.43 337.202C2934.43 348.952 2930.29 358.909 2922.03 367.074C2913.77 375.239 2903.86 379.321 2892.31 379.321ZM2892.31 551.38H2672.75C2661.01 551.38 2651.05 547.297 2642.88 539.133C2634.72 530.968 2630.64 521.011 2630.64 509.261C2630.64 497.711 2634.72 487.804 2642.88 479.539C2651.05 471.275 2661.01 467.143 2672.75 467.143H2892.31C2903.86 467.143 2913.77 471.275 2922.03 479.539C2930.29 487.804 2934.43 497.711 2934.43 509.261C2934.43 521.011 2930.29 530.968 2922.03 539.133C2913.77 547.298 2903.86 551.38 2892.31 551.38Z" fill="black"/>
<defs>
<linearGradient id="paint0_linear_754_1393" x1="81.9673" y1="295.082" x2="983.607" y2="295.082" gradientUnits="userSpaceOnUse">
<stop stop-color="#EF4136"/>
<stop offset="1" stop-color="#FBB040"/>
</linearGradient>
</defs>
</svg>
